<mxfile>
    <diagram id="stukyoLYKDwqEfwfrE_7" name="Page-1">
        <mxGraphModel dx="1132" dy="692" grid="1" gridSize="10" guides="1" tooltips="1" connect="1" arrows="1" fold="1" page="1" pageScale="1" pageWidth="850" pageHeight="1100" math="0" shadow="0">
            <root>
                <mxCell id="0"/>
                <mxCell id="1" parent="0"/>
                <mxCell id="AyPsUSvWZMn7-LyFAKhy-5" value="" style="edgeStyle=orthogonalEdgeStyle;rounded=0;orthogonalLoop=1;jettySize=auto;html=1;" parent="1" source="AyPsUSvWZMn7-LyFAKhy-1" target="AyPsUSvWZMn7-LyFAKhy-4" edge="1">
                    <mxGeometry relative="1" as="geometry"/>
                </mxCell>
                <mxCell id="AyPsUSvWZMn7-LyFAKhy-1" value="READ argv_file" style="rounded=0;whiteSpace=wrap;html=1;fillColor=#6d8764;strokeColor=#3A5431;fontColor=#ffffff;" parent="1" vertex="1">
                    <mxGeometry x="200" y="40" width="120" height="60" as="geometry"/>
                </mxCell>
                <mxCell id="AyPsUSvWZMn7-LyFAKhy-3" value="" style="edgeStyle=orthogonalEdgeStyle;rounded=0;orthogonalLoop=1;jettySize=auto;html=1;" parent="1" source="AyPsUSvWZMn7-LyFAKhy-2" target="AyPsUSvWZMn7-LyFAKhy-1" edge="1">
                    <mxGeometry relative="1" as="geometry"/>
                </mxCell>
                <mxCell id="AyPsUSvWZMn7-LyFAKhy-2" value="PARSING" style="rounded=0;whiteSpace=wrap;html=1;fillColor=#6d8764;strokeColor=#3A5431;fontColor=#ffffff;" parent="1" vertex="1">
                    <mxGeometry x="40" y="40" width="120" height="60" as="geometry"/>
                </mxCell>
                <mxCell id="AyPsUSvWZMn7-LyFAKhy-8" value="" style="edgeStyle=orthogonalEdgeStyle;rounded=0;orthogonalLoop=1;jettySize=auto;html=1;" parent="1" source="AyPsUSvWZMn7-LyFAKhy-4" target="AyPsUSvWZMn7-LyFAKhy-6" edge="1">
                    <mxGeometry relative="1" as="geometry"/>
                </mxCell>
                <mxCell id="AyPsUSvWZMn7-LyFAKhy-12" value="" style="edgeStyle=orthogonalEdgeStyle;rounded=0;orthogonalLoop=1;jettySize=auto;html=1;" parent="1" source="AyPsUSvWZMn7-LyFAKhy-4" target="AyPsUSvWZMn7-LyFAKhy-11" edge="1">
                    <mxGeometry relative="1" as="geometry"/>
                </mxCell>
                <mxCell id="AyPsUSvWZMn7-LyFAKhy-4" value="VERIF file" style="rounded=0;whiteSpace=wrap;html=1;" parent="1" vertex="1">
                    <mxGeometry x="360" y="40" width="120" height="60" as="geometry"/>
                </mxCell>
                <mxCell id="AyPsUSvWZMn7-LyFAKhy-9" value="" style="edgeStyle=orthogonalEdgeStyle;rounded=0;orthogonalLoop=1;jettySize=auto;html=1;" parent="1" source="AyPsUSvWZMn7-LyFAKhy-6" target="AyPsUSvWZMn7-LyFAKhy-7" edge="1">
                    <mxGeometry relative="1" as="geometry"/>
                </mxCell>
                <mxCell id="AyPsUSvWZMn7-LyFAKhy-10" value="" style="edgeStyle=orthogonalEdgeStyle;rounded=0;orthogonalLoop=1;jettySize=auto;html=1;" parent="1" source="AyPsUSvWZMn7-LyFAKhy-6" target="AyPsUSvWZMn7-LyFAKhy-7" edge="1">
                    <mxGeometry relative="1" as="geometry"/>
                </mxCell>
                <mxCell id="AyPsUSvWZMn7-LyFAKhy-6" value="VERIF name &amp;amp; header" style="rounded=0;whiteSpace=wrap;html=1;" parent="1" vertex="1">
                    <mxGeometry x="360" y="130" width="120" height="60" as="geometry"/>
                </mxCell>
                <mxCell id="AyPsUSvWZMn7-LyFAKhy-7" value="VERIF asm code" style="rounded=0;whiteSpace=wrap;html=1;fillColor=#647687;strokeColor=#314354;fontColor=#ffffff;" parent="1" vertex="1">
                    <mxGeometry x="360" y="220" width="120" height="60" as="geometry"/>
                </mxCell>
                <mxCell id="AyPsUSvWZMn7-LyFAKhy-14" value="" style="edgeStyle=orthogonalEdgeStyle;rounded=0;orthogonalLoop=1;jettySize=auto;html=1;" parent="1" source="AyPsUSvWZMn7-LyFAKhy-11" target="AyPsUSvWZMn7-LyFAKhy-13" edge="1">
                    <mxGeometry relative="1" as="geometry"/>
                </mxCell>
                <mxCell id="AyPsUSvWZMn7-LyFAKhy-11" value="&lt;div&gt;CONVERT asm code&lt;br&gt;&lt;/div&gt;&lt;div&gt;in hex&lt;br&gt;&lt;/div&gt;" style="rounded=0;whiteSpace=wrap;html=1;fillColor=#647687;strokeColor=#314354;fontColor=#ffffff;" parent="1" vertex="1">
                    <mxGeometry x="520" y="40" width="120" height="60" as="geometry"/>
                </mxCell>
                <mxCell id="AyPsUSvWZMn7-LyFAKhy-13" value="WRITE in file" style="rounded=0;whiteSpace=wrap;html=1;" parent="1" vertex="1">
                    <mxGeometry x="680" y="40" width="120" height="60" as="geometry"/>
                </mxCell>
                <mxCell id="AyPsUSvWZMn7-LyFAKhy-24" value="" style="edgeStyle=orthogonalEdgeStyle;rounded=0;orthogonalLoop=1;jettySize=auto;html=1;" parent="1" source="AyPsUSvWZMn7-LyFAKhy-15" target="AyPsUSvWZMn7-LyFAKhy-23" edge="1">
                    <mxGeometry relative="1" as="geometry"/>
                </mxCell>
                <mxCell id="AyPsUSvWZMn7-LyFAKhy-15" value="VERIF asm code" style="rounded=0;whiteSpace=wrap;html=1;fillColor=#647687;strokeColor=#314354;fontColor=#ffffff;" parent="1" vertex="1">
                    <mxGeometry x="40" y="470" width="120" height="60" as="geometry"/>
                </mxCell>
                <mxCell id="AyPsUSvWZMn7-LyFAKhy-18" value="" style="edgeStyle=orthogonalEdgeStyle;rounded=0;orthogonalLoop=1;jettySize=auto;html=1;" parent="1" source="AyPsUSvWZMn7-LyFAKhy-16" target="AyPsUSvWZMn7-LyFAKhy-17" edge="1">
                    <mxGeometry relative="1" as="geometry"/>
                </mxCell>
                <mxCell id="AyPsUSvWZMn7-LyFAKhy-16" value="&lt;div&gt;CONVERT asm code&lt;br&gt;&lt;/div&gt;&lt;div&gt;in hex&lt;br&gt;&lt;/div&gt;" style="rounded=0;whiteSpace=wrap;html=1;fillColor=#647687;strokeColor=#314354;fontColor=#ffffff;" parent="1" vertex="1">
                    <mxGeometry x="40" y="600" width="120" height="60" as="geometry"/>
                </mxCell>
                <mxCell id="AyPsUSvWZMn7-LyFAKhy-17" value="BOOTSTRAP++" style="rounded=0;whiteSpace=wrap;html=1;" parent="1" vertex="1">
                    <mxGeometry x="200" y="600" width="120" height="60" as="geometry"/>
                </mxCell>
                <mxCell id="AyPsUSvWZMn7-LyFAKhy-22" value="" style="edgeStyle=orthogonalEdgeStyle;rounded=0;orthogonalLoop=1;jettySize=auto;html=1;" parent="1" source="AyPsUSvWZMn7-LyFAKhy-19" target="AyPsUSvWZMn7-LyFAKhy-21" edge="1">
                    <mxGeometry relative="1" as="geometry"/>
                </mxCell>
                <mxCell id="AyPsUSvWZMn7-LyFAKhy-19" value="VERIF func" style="rounded=0;whiteSpace=wrap;html=1;" parent="1" vertex="1">
                    <mxGeometry x="300" y="470" width="120" height="60" as="geometry"/>
                </mxCell>
                <mxCell id="AyPsUSvWZMn7-LyFAKhy-26" style="edgeStyle=orthogonalEdgeStyle;rounded=0;orthogonalLoop=1;jettySize=auto;html=1;entryX=0.033;entryY=1;entryDx=0;entryDy=0;entryPerimeter=0;" parent="1" source="AyPsUSvWZMn7-LyFAKhy-21" target="AyPsUSvWZMn7-LyFAKhy-23" edge="1">
                    <mxGeometry relative="1" as="geometry">
                        <Array as="points">
                            <mxPoint x="600" y="500"/>
                            <mxPoint x="600" y="560"/>
                            <mxPoint x="202" y="560"/>
                        </Array>
                    </mxGeometry>
                </mxCell>
                <mxCell id="AyPsUSvWZMn7-LyFAKhy-21" value="VERIF params &amp;amp; params-types" style="rounded=0;whiteSpace=wrap;html=1;" parent="1" vertex="1">
                    <mxGeometry x="460" y="470" width="120" height="60" as="geometry"/>
                </mxCell>
                <mxCell id="AyPsUSvWZMn7-LyFAKhy-25" value="" style="edgeStyle=orthogonalEdgeStyle;rounded=0;orthogonalLoop=1;jettySize=auto;html=1;" parent="1" target="AyPsUSvWZMn7-LyFAKhy-19" edge="1">
                    <mxGeometry relative="1" as="geometry">
                        <mxPoint x="255" y="500" as="sourcePoint"/>
                    </mxGeometry>
                </mxCell>
                <mxCell id="AyPsUSvWZMn7-LyFAKhy-23" value="&lt;div&gt;loop&amp;nbsp;&amp;nbsp;&amp;nbsp; &lt;br&gt;&lt;/div&gt;" style="triangle;whiteSpace=wrap;html=1;" parent="1" vertex="1">
                    <mxGeometry x="200" y="460" width="60" height="80" as="geometry"/>
                </mxCell>
                <mxCell id="36" value="COLOR CODE" style="swimlane;fontStyle=0;childLayout=stackLayout;horizontal=1;startSize=26;fillColor=none;horizontalStack=0;resizeParent=1;resizeParentMax=0;resizeLast=0;collapsible=1;marginBottom=0;" vertex="1" parent="1">
                    <mxGeometry x="680" y="320" width="140" height="78" as="geometry"/>
                </mxCell>
                <mxCell id="37" value="FINISHED" style="text;strokeColor=#3A5431;fillColor=#6d8764;align=left;verticalAlign=top;spacingLeft=4;spacingRight=4;overflow=hidden;rotatable=0;points=[[0,0.5],[1,0.5]];portConstraint=eastwest;fontColor=#ffffff;" vertex="1" parent="36">
                    <mxGeometry y="26" width="140" height="26" as="geometry"/>
                </mxCell>
                <mxCell id="38" value="HARD" style="text;strokeColor=#314354;fillColor=#647687;align=left;verticalAlign=top;spacingLeft=4;spacingRight=4;overflow=hidden;rotatable=0;points=[[0,0.5],[1,0.5]];portConstraint=eastwest;fontColor=#ffffff;" vertex="1" parent="36">
                    <mxGeometry y="52" width="140" height="26" as="geometry"/>
                </mxCell>
            </root>
        </mxGraphModel>
    </diagram>
</mxfile>
